<?xml version="1.0" encoding="UTF-8"?>
<!-- octomind logo lockup — pixel icon + 5x7 pixel-art wordmark, transparent bg -->
<svg xmlns="http://www.w3.org/2000/svg" viewBox="0 0 1020 280" width="1020" height="280" shape-rendering="crispEdges">
  <!-- icon: 480x480 source placed at (20,20), scaled 0.5 → 240x240 -->
  <g transform="translate(20 20) scale(0.5)">
    <path d="M45 255H15V285H45V255Z" fill="#A855F7"/>
    <path d="M45 135H15V165H45V135Z" fill="#A855F7"/>
    <path d="M135 75H105V105H135V75Z" fill="#C084FC"/>
    <path d="M315 75H285V105H315V75Z" fill="#C084FC"/>
    <path d="M195 75H105V105H195V75Z" fill="#A855F7"/>
    <path d="M375 75H285V105H375V75Z" fill="#A855F7"/>
    <path d="M405 105H75V135H405V105Z" fill="#A855F7"/>
    <path d="M405 135H75V165H405V135Z" fill="#A855F7"/>
    <path d="M465 165H15V195H465V165Z" fill="#A855F7"/>
    <path d="M405 195H75V225H405V195Z" fill="#A855F7"/>
    <path d="M465 225H15V255H465V225Z" fill="#A855F7"/>
    <path d="M405 255H75V285H405V255Z" fill="#A855F7"/>
    <path d="M105 285H75V345H105V285Z" fill="#A855F7"/>
    <path d="M75 315H15V345H75V315Z" fill="#A855F7"/>
    <path d="M405 285H375V345H405V285Z" fill="#A855F7"/>
    <path d="M465 315H405V345H465V315Z" fill="#A855F7"/>
    <path d="M345 315H315V345H345V315Z" fill="#A855F7"/>
    <path d="M465 255H435V285H465V255Z" fill="#A855F7"/>
    <path d="M165 315H135V345H165V315Z" fill="#A855F7"/>
    <path d="M195 285H165V345H195V285Z" fill="#A855F7"/>
    <path d="M315 285H285V345H315V285Z" fill="#A855F7"/>
    <path d="M255 105H225V285H255V105Z" fill="#C084FC"/>
    <path d="M165 165H135V195H165V165Z" fill="#22D3EE"/>
    <path d="M345 165H315V195H345V165Z" fill="#22D3EE"/>
    <path d="M465 135H435V165H465V135Z" fill="#A855F7"/>
  </g>

  <!-- pixel wordmark: 5x7 OCTOMIND, pixel=15px (matches icon grain), centered vertically -->
  <g fill="#A855F7">
    <rect x="305" y="87" width="45" height="15"/>
    <rect x="290" y="102" width="15" height="15"/>
    <rect x="350" y="102" width="15" height="15"/>
    <rect x="290" y="117" width="15" height="15"/>
    <rect x="350" y="117" width="15" height="15"/>
    <rect x="290" y="132" width="15" height="15"/>
    <rect x="350" y="132" width="15" height="15"/>
    <rect x="290" y="147" width="15" height="15"/>
    <rect x="350" y="147" width="15" height="15"/>
    <rect x="290" y="162" width="15" height="15"/>
    <rect x="350" y="162" width="15" height="15"/>
    <rect x="305" y="177" width="45" height="15"/>
    <rect x="395" y="87" width="60" height="15"/>
    <rect x="380" y="102" width="15" height="15"/>
    <rect x="380" y="117" width="15" height="15"/>
    <rect x="380" y="132" width="15" height="15"/>
    <rect x="380" y="147" width="15" height="15"/>
    <rect x="380" y="162" width="15" height="15"/>
    <rect x="395" y="177" width="60" height="15"/>
    <rect x="470" y="87" width="75" height="15"/>
    <rect x="500" y="102" width="15" height="15"/>
    <rect x="500" y="117" width="15" height="15"/>
    <rect x="500" y="132" width="15" height="15"/>
    <rect x="500" y="147" width="15" height="15"/>
    <rect x="500" y="162" width="15" height="15"/>
    <rect x="500" y="177" width="15" height="15"/>
    <rect x="575" y="87" width="45" height="15"/>
    <rect x="560" y="102" width="15" height="15"/>
    <rect x="620" y="102" width="15" height="15"/>
    <rect x="560" y="117" width="15" height="15"/>
    <rect x="620" y="117" width="15" height="15"/>
    <rect x="560" y="132" width="15" height="15"/>
    <rect x="620" y="132" width="15" height="15"/>
    <rect x="560" y="147" width="15" height="15"/>
    <rect x="620" y="147" width="15" height="15"/>
    <rect x="560" y="162" width="15" height="15"/>
    <rect x="620" y="162" width="15" height="15"/>
    <rect x="575" y="177" width="45" height="15"/>
    <rect x="650" y="87" width="15" height="15"/>
    <rect x="710" y="87" width="15" height="15"/>
    <rect x="650" y="102" width="30" height="15"/>
    <rect x="695" y="102" width="30" height="15"/>
    <rect x="650" y="117" width="15" height="15"/>
    <rect x="680" y="117" width="15" height="15"/>
    <rect x="710" y="117" width="15" height="15"/>
    <rect x="650" y="132" width="15" height="15"/>
    <rect x="680" y="132" width="15" height="15"/>
    <rect x="710" y="132" width="15" height="15"/>
    <rect x="650" y="147" width="15" height="15"/>
    <rect x="710" y="147" width="15" height="15"/>
    <rect x="650" y="162" width="15" height="15"/>
    <rect x="710" y="162" width="15" height="15"/>
    <rect x="650" y="177" width="15" height="15"/>
    <rect x="710" y="177" width="15" height="15"/>
    <rect x="740" y="87" width="75" height="15"/>
    <rect x="770" y="102" width="15" height="15"/>
    <rect x="770" y="117" width="15" height="15"/>
    <rect x="770" y="132" width="15" height="15"/>
    <rect x="770" y="147" width="15" height="15"/>
    <rect x="770" y="162" width="15" height="15"/>
    <rect x="740" y="177" width="75" height="15"/>
    <rect x="830" y="87" width="15" height="15"/>
    <rect x="890" y="87" width="15" height="15"/>
    <rect x="830" y="102" width="30" height="15"/>
    <rect x="890" y="102" width="15" height="15"/>
    <rect x="830" y="117" width="15" height="15"/>
    <rect x="860" y="117" width="15" height="15"/>
    <rect x="890" y="117" width="15" height="15"/>
    <rect x="830" y="132" width="15" height="15"/>
    <rect x="860" y="132" width="15" height="15"/>
    <rect x="890" y="132" width="15" height="15"/>
    <rect x="830" y="147" width="15" height="15"/>
    <rect x="860" y="147" width="15" height="15"/>
    <rect x="890" y="147" width="15" height="15"/>
    <rect x="830" y="162" width="15" height="15"/>
    <rect x="875" y="162" width="30" height="15"/>
    <rect x="830" y="177" width="15" height="15"/>
    <rect x="890" y="177" width="15" height="15"/>
    <rect x="920" y="87" width="60" height="15"/>
    <rect x="920" y="102" width="15" height="15"/>
    <rect x="980" y="102" width="15" height="15"/>
    <rect x="920" y="117" width="15" height="15"/>
    <rect x="980" y="117" width="15" height="15"/>
    <rect x="920" y="132" width="15" height="15"/>
    <rect x="980" y="132" width="15" height="15"/>
    <rect x="920" y="147" width="15" height="15"/>
    <rect x="980" y="147" width="15" height="15"/>
    <rect x="920" y="162" width="15" height="15"/>
    <rect x="980" y="162" width="15" height="15"/>
    <rect x="920" y="177" width="60" height="15"/>
  </g>
</svg>
