<?xml version="1.0" encoding="UTF-8"?>
<!-- octomind logo lockup — pixel icon + 5x7 pixel-art wordmark, transparent bg -->
<svg xmlns="http://www.w3.org/2000/svg" viewBox="0 0 1020 280" width="1020" height="280" shape-rendering="crispEdges">
  <!-- icon: 480x480 source placed at (20,20), scaled 0.5 → 240x240 -->
  <g transform="translate(20 20) scale(0.5)">
    <path d="M384 48H96V96H384V48Z" fill="#A855F7"/>
    <path d="M408 96H72V192H408V96Z" fill="#A855F7"/>
    <path d="M192 144H144V192H192V144Z" fill="#22D3EE"/>
    <path d="M336 144H288V192H336V144Z" fill="#22D3EE"/>
    <path d="M408 192H72V240H408V192Z" fill="#A855F7"/>
    <path d="M384 240H96V288H384V240Z" fill="#A855F7"/>
    <path d="M120 288H72V384H120V288Z" fill="#A855F7"/>
    <path d="M216 288H168V384H216V288Z" fill="#A855F7"/>
    <path d="M312 288H264V384H312V288Z" fill="#A855F7"/>
    <path d="M408 288H360V384H408V288Z" fill="#A855F7"/>
    <path d="M96 384H72V432H96V384Z" fill="#A855F7"/>
    <path d="M192 384H168V432H192V384Z" fill="#A855F7"/>
    <path d="M288 384H264V432H288V384Z" fill="#A855F7"/>
    <path d="M384 384H360V432H384V384Z" fill="#A855F7"/>
  </g>

  <!-- pixel wordmark: 5x7 OCTOMIND, pixel=15px (matches icon grain), centered vertically -->
  <g fill="#A855F7">
    <rect x="305" y="87" width="45" height="15"/>
    <rect x="290" y="102" width="15" height="15"/>
    <rect x="350" y="102" width="15" height="15"/>
    <rect x="290" y="117" width="15" height="15"/>
    <rect x="350" y="117" width="15" height="15"/>
    <rect x="290" y="132" width="15" height="15"/>
    <rect x="350" y="132" width="15" height="15"/>
    <rect x="290" y="147" width="15" height="15"/>
    <rect x="350" y="147" width="15" height="15"/>
    <rect x="290" y="162" width="15" height="15"/>
    <rect x="350" y="162" width="15" height="15"/>
    <rect x="305" y="177" width="45" height="15"/>
    <rect x="395" y="87" width="60" height="15"/>
    <rect x="380" y="102" width="15" height="15"/>
    <rect x="380" y="117" width="15" height="15"/>
    <rect x="380" y="132" width="15" height="15"/>
    <rect x="380" y="147" width="15" height="15"/>
    <rect x="380" y="162" width="15" height="15"/>
    <rect x="395" y="177" width="60" height="15"/>
    <rect x="470" y="87" width="75" height="15"/>
    <rect x="500" y="102" width="15" height="15"/>
    <rect x="500" y="117" width="15" height="15"/>
    <rect x="500" y="132" width="15" height="15"/>
    <rect x="500" y="147" width="15" height="15"/>
    <rect x="500" y="162" width="15" height="15"/>
    <rect x="500" y="177" width="15" height="15"/>
    <rect x="575" y="87" width="45" height="15"/>
    <rect x="560" y="102" width="15" height="15"/>
    <rect x="620" y="102" width="15" height="15"/>
    <rect x="560" y="117" width="15" height="15"/>
    <rect x="620" y="117" width="15" height="15"/>
    <rect x="560" y="132" width="15" height="15"/>
    <rect x="620" y="132" width="15" height="15"/>
    <rect x="560" y="147" width="15" height="15"/>
    <rect x="620" y="147" width="15" height="15"/>
    <rect x="560" y="162" width="15" height="15"/>
    <rect x="620" y="162" width="15" height="15"/>
    <rect x="575" y="177" width="45" height="15"/>
    <rect x="650" y="87" width="15" height="15"/>
    <rect x="710" y="87" width="15" height="15"/>
    <rect x="650" y="102" width="30" height="15"/>
    <rect x="695" y="102" width="30" height="15"/>
    <rect x="650" y="117" width="15" height="15"/>
    <rect x="680" y="117" width="15" height="15"/>
    <rect x="710" y="117" width="15" height="15"/>
    <rect x="650" y="132" width="15" height="15"/>
    <rect x="680" y="132" width="15" height="15"/>
    <rect x="710" y="132" width="15" height="15"/>
    <rect x="650" y="147" width="15" height="15"/>
    <rect x="710" y="147" width="15" height="15"/>
    <rect x="650" y="162" width="15" height="15"/>
    <rect x="710" y="162" width="15" height="15"/>
    <rect x="650" y="177" width="15" height="15"/>
    <rect x="710" y="177" width="15" height="15"/>
    <rect x="740" y="87" width="75" height="15"/>
    <rect x="770" y="102" width="15" height="15"/>
    <rect x="770" y="117" width="15" height="15"/>
    <rect x="770" y="132" width="15" height="15"/>
    <rect x="770" y="147" width="15" height="15"/>
    <rect x="770" y="162" width="15" height="15"/>
    <rect x="740" y="177" width="75" height="15"/>
    <rect x="830" y="87" width="15" height="15"/>
    <rect x="890" y="87" width="15" height="15"/>
    <rect x="830" y="102" width="30" height="15"/>
    <rect x="890" y="102" width="15" height="15"/>
    <rect x="830" y="117" width="15" height="15"/>
    <rect x="860" y="117" width="15" height="15"/>
    <rect x="890" y="117" width="15" height="15"/>
    <rect x="830" y="132" width="15" height="15"/>
    <rect x="860" y="132" width="15" height="15"/>
    <rect x="890" y="132" width="15" height="15"/>
    <rect x="830" y="147" width="15" height="15"/>
    <rect x="860" y="147" width="15" height="15"/>
    <rect x="890" y="147" width="15" height="15"/>
    <rect x="830" y="162" width="15" height="15"/>
    <rect x="875" y="162" width="30" height="15"/>
    <rect x="830" y="177" width="15" height="15"/>
    <rect x="890" y="177" width="15" height="15"/>
    <rect x="920" y="87" width="60" height="15"/>
    <rect x="920" y="102" width="15" height="15"/>
    <rect x="980" y="102" width="15" height="15"/>
    <rect x="920" y="117" width="15" height="15"/>
    <rect x="980" y="117" width="15" height="15"/>
    <rect x="920" y="132" width="15" height="15"/>
    <rect x="980" y="132" width="15" height="15"/>
    <rect x="920" y="147" width="15" height="15"/>
    <rect x="980" y="147" width="15" height="15"/>
    <rect x="920" y="162" width="15" height="15"/>
    <rect x="980" y="162" width="15" height="15"/>
    <rect x="920" y="177" width="60" height="15"/>
  </g>
</svg>
