<?xml version="1.0" encoding="UTF-8"?>
<!-- octomind logo lockup — pixel icon + 5x7 pixel-art wordmark, transparent bg -->
<svg xmlns="http://www.w3.org/2000/svg" viewBox="0 0 1020 280" width="1020" height="280" shape-rendering="crispEdges">
  <!-- icon: 480x480 source placed at (20,20), scaled 0.5 → 240x240 -->
  <g transform="translate(20 20) scale(0.5)">
    <path d="M75 255H45V285H75V255Z" fill="#A855F7"/>
    <path d="M75 135H45V165H75V135Z" fill="#A855F7"/>
    <path d="M195 105H134V135H195V105Z" fill="#A855F7"/>
    <path d="M345 105H285V135H345V105Z" fill="#A855F7"/>
    <path d="M375 135H104V165H375V135Z" fill="#A855F7"/>
    <path d="M435 165H45V195H435V165Z" fill="#A855F7"/>
    <path d="M375 195H104V225H375V195Z" fill="#A855F7"/>
    <path d="M435 225H45V255H435V225Z" fill="#A855F7"/>
    <path d="M375 255H105V285H375V255Z" fill="#A855F7"/>
    <path d="M135 285H105V345H135V285Z" fill="#A855F7"/>
    <path d="M105 315H75V345H105V315Z" fill="#A855F7"/>
    <path d="M375 285H345V345H375V285Z" fill="#A855F7"/>
    <path d="M405 315H375V345H405V315Z" fill="#A855F7"/>
    <path d="M315 315H285V345H315V315Z" fill="#A855F7"/>
    <path d="M435 255H405V285H435V255Z" fill="#A855F7"/>
    <path d="M198 315H168V345H198V315Z" fill="#A855F7"/>
    <path d="M225 285H195V345H225V285Z" fill="#A855F7"/>
    <path d="M285 285H255V345H285V285Z" fill="#A855F7"/>
    <path d="M255 135H225V285H255V135Z" fill="#C084FC"/>
    <path d="M194 195H164V225H194V195Z" fill="#22D3EE"/>
    <path d="M315 195H285V225H315V195Z" fill="#22D3EE"/>
    <path d="M435 135H405V165H435V135Z" fill="#A855F7"/>
  </g>

  <!-- pixel wordmark: 5x7 OCTOMIND, pixel=15px (matches icon grain), centered vertically -->
  <g fill="#A855F7">
    <rect x="305" y="87" width="45" height="15"/>
    <rect x="290" y="102" width="15" height="15"/>
    <rect x="350" y="102" width="15" height="15"/>
    <rect x="290" y="117" width="15" height="15"/>
    <rect x="350" y="117" width="15" height="15"/>
    <rect x="290" y="132" width="15" height="15"/>
    <rect x="350" y="132" width="15" height="15"/>
    <rect x="290" y="147" width="15" height="15"/>
    <rect x="350" y="147" width="15" height="15"/>
    <rect x="290" y="162" width="15" height="15"/>
    <rect x="350" y="162" width="15" height="15"/>
    <rect x="305" y="177" width="45" height="15"/>
    <rect x="395" y="87" width="60" height="15"/>
    <rect x="380" y="102" width="15" height="15"/>
    <rect x="380" y="117" width="15" height="15"/>
    <rect x="380" y="132" width="15" height="15"/>
    <rect x="380" y="147" width="15" height="15"/>
    <rect x="380" y="162" width="15" height="15"/>
    <rect x="395" y="177" width="60" height="15"/>
    <rect x="470" y="87" width="75" height="15"/>
    <rect x="500" y="102" width="15" height="15"/>
    <rect x="500" y="117" width="15" height="15"/>
    <rect x="500" y="132" width="15" height="15"/>
    <rect x="500" y="147" width="15" height="15"/>
    <rect x="500" y="162" width="15" height="15"/>
    <rect x="500" y="177" width="15" height="15"/>
    <rect x="575" y="87" width="45" height="15"/>
    <rect x="560" y="102" width="15" height="15"/>
    <rect x="620" y="102" width="15" height="15"/>
    <rect x="560" y="117" width="15" height="15"/>
    <rect x="620" y="117" width="15" height="15"/>
    <rect x="560" y="132" width="15" height="15"/>
    <rect x="620" y="132" width="15" height="15"/>
    <rect x="560" y="147" width="15" height="15"/>
    <rect x="620" y="147" width="15" height="15"/>
    <rect x="560" y="162" width="15" height="15"/>
    <rect x="620" y="162" width="15" height="15"/>
    <rect x="575" y="177" width="45" height="15"/>
    <rect x="650" y="87" width="15" height="15"/>
    <rect x="710" y="87" width="15" height="15"/>
    <rect x="650" y="102" width="30" height="15"/>
    <rect x="695" y="102" width="30" height="15"/>
    <rect x="650" y="117" width="15" height="15"/>
    <rect x="680" y="117" width="15" height="15"/>
    <rect x="710" y="117" width="15" height="15"/>
    <rect x="650" y="132" width="15" height="15"/>
    <rect x="680" y="132" width="15" height="15"/>
    <rect x="710" y="132" width="15" height="15"/>
    <rect x="650" y="147" width="15" height="15"/>
    <rect x="710" y="147" width="15" height="15"/>
    <rect x="650" y="162" width="15" height="15"/>
    <rect x="710" y="162" width="15" height="15"/>
    <rect x="650" y="177" width="15" height="15"/>
    <rect x="710" y="177" width="15" height="15"/>
    <rect x="740" y="87" width="75" height="15"/>
    <rect x="770" y="102" width="15" height="15"/>
    <rect x="770" y="117" width="15" height="15"/>
    <rect x="770" y="132" width="15" height="15"/>
    <rect x="770" y="147" width="15" height="15"/>
    <rect x="770" y="162" width="15" height="15"/>
    <rect x="740" y="177" width="75" height="15"/>
    <rect x="830" y="87" width="15" height="15"/>
    <rect x="890" y="87" width="15" height="15"/>
    <rect x="830" y="102" width="30" height="15"/>
    <rect x="890" y="102" width="15" height="15"/>
    <rect x="830" y="117" width="15" height="15"/>
    <rect x="860" y="117" width="15" height="15"/>
    <rect x="890" y="117" width="15" height="15"/>
    <rect x="830" y="132" width="15" height="15"/>
    <rect x="860" y="132" width="15" height="15"/>
    <rect x="890" y="132" width="15" height="15"/>
    <rect x="830" y="147" width="15" height="15"/>
    <rect x="860" y="147" width="15" height="15"/>
    <rect x="890" y="147" width="15" height="15"/>
    <rect x="830" y="162" width="15" height="15"/>
    <rect x="875" y="162" width="30" height="15"/>
    <rect x="830" y="177" width="15" height="15"/>
    <rect x="890" y="177" width="15" height="15"/>
    <rect x="920" y="87" width="60" height="15"/>
    <rect x="920" y="102" width="15" height="15"/>
    <rect x="980" y="102" width="15" height="15"/>
    <rect x="920" y="117" width="15" height="15"/>
    <rect x="980" y="117" width="15" height="15"/>
    <rect x="920" y="132" width="15" height="15"/>
    <rect x="980" y="132" width="15" height="15"/>
    <rect x="920" y="147" width="15" height="15"/>
    <rect x="980" y="147" width="15" height="15"/>
    <rect x="920" y="162" width="15" height="15"/>
    <rect x="980" y="162" width="15" height="15"/>
    <rect x="920" y="177" width="60" height="15"/>
  </g>
</svg>
