<svg width="480" height="480" viewBox="0 0 480 480" fill="none" xmlns="http://www.w3.org/2000/svg">
<g clip-path="url(#clip0_3097_172)">
<path d="M75 255H45V285H75V255Z" fill="#A855F7"/>
<path d="M75 135H45V165H75V135Z" fill="#A855F7"/>
<path d="M195 105H134V135H195V105Z" fill="#A855F7"/>
<path d="M345 105H285V135H345V105Z" fill="#A855F7"/>
<path d="M375 135H104V165H375V135Z" fill="#A855F7"/>
<path d="M435 165H45V195H435V165Z" fill="#A855F7"/>
<path d="M375 195H104V225H375V195Z" fill="#A855F7"/>
<path d="M435 225H45V255H435V225Z" fill="#A855F7"/>
<path d="M375 255H105V285H375V255Z" fill="#A855F7"/>
<path d="M135 285H105V345H135V285Z" fill="#A855F7"/>
<path d="M105 315H75V345H105V315Z" fill="#A855F7"/>
<path d="M375 285H345V345H375V285Z" fill="#A855F7"/>
<path d="M405 315H375V345H405V315Z" fill="#A855F7"/>
<path d="M315 315H285V345H315V315Z" fill="#A855F7"/>
<path d="M435 255H405V285H435V255Z" fill="#A855F7"/>
<path d="M198 315H168V345H198V315Z" fill="#A855F7"/>
<path d="M225 285H195V345H225V285Z" fill="#A855F7"/>
<path d="M285 285H255V345H285V285Z" fill="#A855F7"/>
<path d="M255 135H225V285H255V135Z" fill="#C084FC"/>
<path d="M194 195H164V225H194V195Z" fill="#22D3EE"/>
<path d="M315 195H285V225H315V195Z" fill="#22D3EE"/>
<path d="M435 135H405V165H435V135Z" fill="#A855F7"/>
</g>
<defs>
<clipPath id="clip0_3097_172">
<rect width="480" height="480" fill="white"/>
</clipPath>
</defs>
</svg>
